<svg width="20" height="20" viewBox="0 0 20 20" fill="none" xmlns="http://www.w3.org/2000/svg">
<circle cx="10" cy="10" r="10" fill="#0C0C0C"/>
<path d="M14.0081 7.7519C13.938 7.8165 13.8465 7.85299 13.7512 7.8544H4.73747C4.41747 7.8544 4.25622 7.48877 4.47747 7.27377L5.95747 5.8469C6.02627 5.78026 6.11795 5.74246 6.21372 5.74127H15.2631C15.5862 5.74127 15.7443 6.11002 15.5193 6.32502L14.0081 7.7519Z" fill="url(#paint0_linear_1_61)"/>
<path d="M14.0081 14.7857C13.938 14.8497 13.8462 14.8848 13.7512 14.8838H4.73747C4.41747 14.8838 4.25622 14.5213 4.47747 14.3069L5.95747 12.8763C6.02685 12.811 6.11847 12.7746 6.21372 12.7744H15.2631C15.5862 12.7744 15.7443 13.14 15.5193 13.3544L14.0081 14.7857Z" fill="url(#paint1_linear_1_61)"/>
<path d="M14.0081 9.35749C13.9381 9.29321 13.8463 9.25792 13.7512 9.25874H4.73747C4.41747 9.25874 4.25622 9.62124 4.47747 9.83499L5.95747 11.2662C6.02751 11.3305 6.1187 11.3667 6.21372 11.3681H15.2631C15.5862 11.3681 15.7443 11.0025 15.5193 10.7881L14.0081 9.35749Z" fill="url(#paint2_linear_1_61)"/>
<defs>
<linearGradient id="paint0_linear_1_61" x1="4.3756" y1="13.0138" x2="15.8943" y2="12.5569" gradientUnits="userSpaceOnUse">
<stop stop-color="#599DB0"/>
<stop offset="1" stop-color="#47F8C3"/>
</linearGradient>
<linearGradient id="paint1_linear_1_61" x1="4.3756" y1="13.4207" x2="15.8268" y2="13.0413" gradientUnits="userSpaceOnUse">
<stop stop-color="#C44FE2"/>
<stop offset="1" stop-color="#73B0D0"/>
</linearGradient>
<linearGradient id="paint2_linear_1_61" x1="5.02185" y1="10.3137" x2="15.1887" y2="10.3137" gradientUnits="userSpaceOnUse">
<stop stop-color="#778CBF"/>
<stop offset="1" stop-color="#5DCDC9"/>
</linearGradient>
</defs>
</svg>
