<svg width="45" height="45" viewBox="0 0 45 45" fill="none" xmlns="http://www.w3.org/2000/svg">
<mask id="path-1-outside-1_1_406" maskUnits="userSpaceOnUse" x="0" y="0" width="45" height="45" fill="black">
<rect fill="white" width="45" height="45"/>
<path d="M1 21C1 9.95431 9.95431 1 21 1C32.0457 1 41 9.95431 41 21C41 32.0457 32.0457 41 21 41C9.95431 41 1 32.0457 1 21Z"/>
</mask>
<path d="M1 21C1 9.95431 9.95431 1 21 1C32.0457 1 41 9.95431 41 21C41 32.0457 32.0457 41 21 41C9.95431 41 1 32.0457 1 21Z" fill="#042F32"/>
<path d="M0 21C0 9.40202 9.40202 0 21 0H24C35.598 0 45 9.40202 45 21H37C37 10.5066 29.8366 2 21 2C10.5066 2 2 10.5066 2 21H0ZM45 21C45 34.2548 34.2548 45 21 45C9.40202 45 0 35.598 0 24L2 21C2 29.8366 10.5066 37 21 37C29.8366 37 37 29.8366 37 21H45ZM21 45C9.40202 45 0 35.598 0 24V21C0 9.40202 9.40202 0 21 0V2C10.5066 2 2 10.5066 2 21C2 29.8366 10.5066 37 21 37V45ZM24 0C35.598 0 45 9.40202 45 21C45 34.2548 34.2548 45 21 45V37C29.8366 37 37 29.8366 37 21C37 10.5066 29.8366 2 21 2L24 0Z" fill="#00EB81" mask="url(#path-1-outside-1_1_406)"/>
<path d="M21 11C15.48 11 11 15.48 11 21C11 26.52 15.48 31 21 31C26.52 31 31 26.52 31 21C31 15.48 26.52 11 21 11ZM25.64 17.8C25.49 19.38 24.84 23.22 24.51 24.99C24.37 25.74 24.09 25.99 23.83 26.02C23.25 26.07 22.81 25.64 22.25 25.27C21.37 24.69 20.87 24.33 20.02 23.77C19.03 23.12 19.67 22.76 20.24 22.18C20.39 22.03 22.95 19.7 23 19.49C23.0069 19.4582 23.006 19.4252 22.9973 19.3938C22.9886 19.3624 22.9724 19.3337 22.95 19.31C22.89 19.26 22.81 19.28 22.74 19.29C22.65 19.31 21.25 20.24 18.52 22.08C18.12 22.35 17.76 22.49 17.44 22.48C17.08 22.47 16.4 22.28 15.89 22.11C15.26 21.91 14.77 21.8 14.81 21.45C14.83 21.27 15.08 21.09 15.55 20.9C18.47 19.63 20.41 18.79 21.38 18.39C24.16 17.23 24.73 17.03 25.11 17.03C25.19 17.03 25.38 17.05 25.5 17.15C25.6 17.23 25.63 17.34 25.64 17.42C25.63 17.48 25.65 17.66 25.64 17.8Z" fill="white"/>
</svg>
