<svg width="24" height="24" viewBox="0 0 24 24" fill="none" xmlns="http://www.w3.org/2000/svg">
<path d="M23.1428 7.71429V18.8571C23.1428 19.4255 22.9171 19.9705 22.5152 20.3724C22.1133 20.7742 21.5683 21 21 21M21 21C20.4317 21 19.8866 20.7742 19.4847 20.3724C19.0829 19.9705 18.8571 19.4255 18.8571 18.8571V3.85714C18.8571 3.62981 18.7668 3.4118 18.6061 3.25105C18.4453 3.09031 18.2273 3 18 3H1.71426C1.48693 3 1.26891 3.09031 1.10817 3.25105C0.947423 3.4118 0.857117 3.62981 0.857117 3.85714V19.2857C0.857117 19.7404 1.03773 20.1764 1.35922 20.4979C1.68071 20.8194 2.11675 21 2.5714 21H21Z" stroke="#90ABA9" stroke-width="1.5" stroke-linecap="round" stroke-linejoin="round"/>
<path d="M6.00024 16.7147H13.7145M13.7145 7.28613H6.00024V11.5718H13.7145V7.28613Z" stroke="#90ABA9" stroke-width="1.5" stroke-linecap="round" stroke-linejoin="round"/>
</svg>
